<?xml version="1.0" encoding="utf-8"?>
<!-- Generator: Adobe Illustrator 26.3.0, SVG Export Plug-In . SVG Version: 6.00 Build 0)  -->
<svg version="1.1" id="Layer_1" xmlns="http://www.w3.org/2000/svg" xmlns:xlink="http://www.w3.org/1999/xlink" x="0px" y="0px"
	 viewBox="0 0 850.4 502.5" style="enable-background:new 0 0 850.4 502.5;" xml:space="preserve">
<style type="text/css">
	
		.st0{clip-path:url(#SVGID_00000180325194310889761510000013079580873395527079_);fill:url(#SVGID_00000068665361511456677050000001305791260573906865_);}
	
		.st1{clip-path:url(#SVGID_00000072995460352760961120000001871311831892182191_);fill:url(#SVGID_00000129889998961147717080000009507352717845617586_);}
	
		.st2{clip-path:url(#SVGID_00000181052340146790139580000010075561730900490907_);fill:url(#SVGID_00000085936332535284166250000010606419774695720080_);}
	
		.st3{clip-path:url(#SVGID_00000177454049199386201950000007122139118604462989_);fill:url(#SVGID_00000080919378714714296050000016269683725851243436_);}
	
		.st4{clip-path:url(#SVGID_00000021089228185674871290000000310857022305186197_);fill:url(#SVGID_00000113315742166922502420000013002586541208929162_);}
	
		.st5{clip-path:url(#SVGID_00000003810552034201902500000012029011570258619581_);fill:url(#SVGID_00000061448911563400582010000016703106037056847545_);}
	
		.st6{clip-path:url(#SVGID_00000077326260820727777570000012653272361413123970_);fill:url(#SVGID_00000162327169122203877730000013783334189492682890_);}
	
		.st7{clip-path:url(#SVGID_00000147182166135412661560000016823560171257469611_);fill:url(#SVGID_00000098909073660623808470000014517327949436238267_);}
	
		.st8{clip-path:url(#SVGID_00000063598958635110357850000005941438654944734359_);fill:url(#SVGID_00000151522702684045718880000015746617897765185190_);}
	
		.st9{clip-path:url(#SVGID_00000128464401379067384840000007284223094235584946_);fill:url(#SVGID_00000075875747893682656790000003991908353245423518_);}
	
		.st10{clip-path:url(#SVGID_00000129897058506187260610000017375058389158534313_);fill:url(#SVGID_00000101070043772442011760000005968325314301335428_);}
	
		.st11{clip-path:url(#SVGID_00000119816038220624999280000006356563938877484463_);fill:url(#SVGID_00000069380177048607350890000018224283507434961544_);}
	
		.st12{clip-path:url(#SVGID_00000090294890836425180780000009831718616146474398_);fill:url(#SVGID_00000012463197281380112140000012006593627011111350_);}
	
		.st13{clip-path:url(#SVGID_00000164515995545175173930000013207748085756932543_);fill:url(#SVGID_00000106863522596008242530000001774158283560324014_);}
	
		.st14{clip-path:url(#SVGID_00000070805237733838896830000004549741952908396426_);fill:url(#SVGID_00000160888208086256602980000015295230123550192826_);}
	
		.st15{clip-path:url(#SVGID_00000168117252900402481080000002690004090105955758_);fill:url(#SVGID_00000109013942415627238580000003668678741459254161_);}
	
		.st16{clip-path:url(#SVGID_00000081615528393675374350000005130821671104549306_);fill:url(#SVGID_00000142886214255014692180000007722783632548824194_);}
	
		.st17{clip-path:url(#SVGID_00000096779343566561542200000017712223371289564822_);fill:url(#SVGID_00000057844024057374434560000010560740073922448052_);}
	
		.st18{clip-path:url(#SVGID_00000040571900639899976080000009839833004834028990_);fill:url(#SVGID_00000134956600854698795800000006670583834066812857_);}
	
		.st19{clip-path:url(#SVGID_00000128455299778029522300000005737398033337653173_);fill:url(#SVGID_00000090974228715313548730000013786653791513567400_);}
	
		.st20{clip-path:url(#SVGID_00000138557783214332885150000011860179524926193333_);fill:url(#SVGID_00000168080012420970545070000000321622812914434486_);}
	
		.st21{clip-path:url(#SVGID_00000008842036758095643800000011527030453666798765_);fill:url(#SVGID_00000158013647055163760220000015515064766207247514_);}
	
		.st22{clip-path:url(#SVGID_00000149344186427235717440000012688101937747530416_);fill:url(#SVGID_00000041266200479555252050000000694593346211313074_);}
	
		.st23{clip-path:url(#SVGID_00000106847784803001876290000014499759074767519423_);fill:url(#SVGID_00000098183148164200933210000004939928112926037436_);}
	
		.st24{clip-path:url(#SVGID_00000035514686236511946390000013100777150423895994_);fill:url(#SVGID_00000059271038455059831330000017153176671418175368_);}
</style>
<g>
	<g>
		<g>
			<defs>
				<path id="SVGID_1_" d="M195.4,380.2c-3.2,3.2-4.8,7.1-4.8,11.7c0,4.5,1.6,8.3,4.7,11.5c3.1,3.2,6.9,4.8,11.3,4.8
					c4.5,0,8.3-1.6,11.2-4.9c1.3-1.5,2.2-3,2.8-4.7c0.6-1.8,0.8-3.9,0.8-6.3v-1h-13.1v4.5h7.9c-0.2,2.2-1.3,4.1-3.1,5.7
					c-1.9,1.6-4,2.4-6.3,2.4c-2.8,0-5.3-1.1-7.7-3.2c-2.5-2.3-3.8-5.2-3.8-8.7c0-3.4,1.1-6.2,3.4-8.5c2.3-2.3,5.1-3.4,8.4-3.4
					c3.7,0,6.9,1.7,9.5,5.2l3.4-3.2c-2-2.3-4-3.9-6-4.9c-2.1-1-4.4-1.5-6.9-1.5C202.5,375.4,198.6,377,195.4,380.2"/>
			</defs>
			<clipPath id="SVGID_00000013876882159348040060000008373440893907635337_">
				<use xlink:href="#SVGID_1_"  style="overflow:visible;"/>
			</clipPath>
			
				<linearGradient id="SVGID_00000181789252766025692530000011855201566226174376_" gradientUnits="userSpaceOnUse" x1="301.7457" y1="-307.6286" x2="305.3922" y2="-307.6286" gradientTransform="matrix(0 -8.9951 8.9951 0 2973.1501 3122.364)">
				<stop  offset="0" style="stop-color:#94722E"/>
				<stop  offset="0.3091" style="stop-color:#E3C05B"/>
				<stop  offset="0.4182" style="stop-color:#EBEBB4"/>
				<stop  offset="0.5758" style="stop-color:#E3C05B"/>
				<stop  offset="0.8424" style="stop-color:#94722E"/>
				<stop  offset="0.9689" style="stop-color:#E3C05B"/>
				<stop  offset="1" style="stop-color:#E3C05B"/>
			</linearGradient>
			
				<rect x="190.6" y="375.4" style="clip-path:url(#SVGID_00000013876882159348040060000008373440893907635337_);fill:url(#SVGID_00000181789252766025692530000011855201566226174376_);" width="30.8" height="32.8"/>
		</g>
	</g>
	<g>
		<g>
			<defs>
				<polygon id="SVGID_00000062190596993739420060000016716378749965786553_" points="234.3,399 229.1,387.6 223.9,387.6 234.3,409 
					239.9,396.2 245.4,409 255.9,387.6 250.7,387.6 245.6,399 239.9,385.8 				"/>
			</defs>
			<clipPath id="SVGID_00000049211663512627449340000016095240312978767797_">
				<use xlink:href="#SVGID_00000062190596993739420060000016716378749965786553_"  style="overflow:visible;"/>
			</clipPath>
			
				<linearGradient id="SVGID_00000160869381049694635310000000053430451041982861_" gradientUnits="userSpaceOnUse" x1="291.6214" y1="-317.5648" x2="295.2609" y2="-317.5648" gradientTransform="matrix(0 -6.3746 6.3746 0 2264.2485 2268.0027)">
				<stop  offset="0" style="stop-color:#94722E"/>
				<stop  offset="0.3091" style="stop-color:#E3C05B"/>
				<stop  offset="0.4182" style="stop-color:#EBEBB4"/>
				<stop  offset="0.5758" style="stop-color:#E3C05B"/>
				<stop  offset="0.8424" style="stop-color:#94722E"/>
				<stop  offset="0.9689" style="stop-color:#E3C05B"/>
				<stop  offset="1" style="stop-color:#E3C05B"/>
			</linearGradient>
			
				<rect x="223.9" y="385.8" style="clip-path:url(#SVGID_00000049211663512627449340000016095240312978767797_);fill:url(#SVGID_00000160869381049694635310000000053430451041982861_);" width="32" height="23.2"/>
		</g>
	</g>
	<g>
		<g>
			<defs>
				<path id="SVGID_00000172429079658465211510000003120898685652583565_" d="M259,407.5h4.6v-19.9H259V407.5z M259.2,377.3
					c-0.6,0.6-0.9,1.3-0.9,2.1c0,0.8,0.3,1.6,0.9,2.1c0.6,0.6,1.3,0.9,2.1,0.9c0.8,0,1.5-0.3,2.1-0.9s0.9-1.3,0.9-2.1
					c0-0.8-0.3-1.5-0.9-2.1s-1.3-0.9-2.1-0.9C260.4,376.4,259.7,376.7,259.2,377.3"/>
			</defs>
			<clipPath id="SVGID_00000157303867661921376380000007869363383356758172_">
				<use xlink:href="#SVGID_00000172429079658465211510000003120898685652583565_"  style="overflow:visible;"/>
			</clipPath>
			
				<linearGradient id="SVGID_00000034053437656116227110000001928965895982455429_" gradientUnits="userSpaceOnUse" x1="300.5361" y1="-304.6788" x2="304.1784" y2="-304.6788" gradientTransform="matrix(0 -8.5518 8.5518 0 2866.8525 2977.6626)">
				<stop  offset="0" style="stop-color:#94722E"/>
				<stop  offset="0.3091" style="stop-color:#E3C05B"/>
				<stop  offset="0.4182" style="stop-color:#EBEBB4"/>
				<stop  offset="0.5758" style="stop-color:#E3C05B"/>
				<stop  offset="0.8424" style="stop-color:#94722E"/>
				<stop  offset="0.9689" style="stop-color:#E3C05B"/>
				<stop  offset="1" style="stop-color:#E3C05B"/>
			</linearGradient>
			
				<rect x="258.3" y="376.4" style="clip-path:url(#SVGID_00000157303867661921376380000007869363383356758172_);fill:url(#SVGID_00000034053437656116227110000001928965895982455429_);" width="6" height="31.1"/>
		</g>
	</g>
	<g>
		<g>
			<defs>
				<path id="SVGID_00000140714810627959267210000012168876823269049527_" d="M274,389.5v-1.8h-4.6v19.9h4.6V398
					c0-2.5,0.3-4.2,0.9-5.2s1.7-1.5,3.3-1.5c1.4,0,2.4,0.4,2.9,1.1s0.8,2.1,0.8,4.1v11.1h4.6v-12.2c0-2.8-0.5-4.8-1.7-6.1
					c-1.3-1.5-3.1-2.2-5.4-2.2C277.4,387.1,275.6,387.9,274,389.5"/>
			</defs>
			<clipPath id="SVGID_00000056410919585445404090000001811553156012362889_">
				<use xlink:href="#SVGID_00000140714810627959267210000012168876823269049527_"  style="overflow:visible;"/>
			</clipPath>
			
				<linearGradient id="SVGID_00000160154445557207697130000014991681304522207623_" gradientUnits="userSpaceOnUse" x1="287.2567" y1="-318.623" x2="290.9" y2="-318.623" gradientTransform="matrix(0 -5.617 5.617 0 2067.6555 2021.0583)">
				<stop  offset="0" style="stop-color:#94722E"/>
				<stop  offset="0.3091" style="stop-color:#E3C05B"/>
				<stop  offset="0.4182" style="stop-color:#EBEBB4"/>
				<stop  offset="0.5758" style="stop-color:#E3C05B"/>
				<stop  offset="0.8424" style="stop-color:#94722E"/>
				<stop  offset="0.9689" style="stop-color:#E3C05B"/>
				<stop  offset="1" style="stop-color:#E3C05B"/>
			</linearGradient>
			
				<rect x="269.4" y="387.1" style="clip-path:url(#SVGID_00000056410919585445404090000001811553156012362889_);fill:url(#SVGID_00000160154445557207697130000014991681304522207623_);" width="17.1" height="20.5"/>
		</g>
	</g>
	<g>
		<g>
			<defs>
				<path id="SVGID_00000152228294079334355920000003584245611246569640_" d="M297,389.5v-1.8h-4.6v19.9h4.6V398
					c0-2.5,0.3-4.2,0.9-5.2s1.7-1.5,3.3-1.5c1.4,0,2.4,0.4,2.9,1.1s0.8,2.1,0.8,4.1v11.1h4.6v-12.2c0-2.8-0.6-4.8-1.7-6.1
					c-1.3-1.5-3.1-2.2-5.4-2.2C300.4,387.1,298.6,387.9,297,389.5"/>
			</defs>
			<clipPath id="SVGID_00000032607477839101716510000001553016569853581210_">
				<use xlink:href="#SVGID_00000152228294079334355920000003584245611246569640_"  style="overflow:visible;"/>
			</clipPath>
			
				<linearGradient id="SVGID_00000033333458279342800000000004545656309349961397_" gradientUnits="userSpaceOnUse" x1="287.2567" y1="-315.6685" x2="290.9" y2="-315.6685" gradientTransform="matrix(0 -5.617 5.617 0 2073.9602 2021.0583)">
				<stop  offset="0" style="stop-color:#94722E"/>
				<stop  offset="0.3091" style="stop-color:#E3C05B"/>
				<stop  offset="0.4182" style="stop-color:#EBEBB4"/>
				<stop  offset="0.5758" style="stop-color:#E3C05B"/>
				<stop  offset="0.8424" style="stop-color:#94722E"/>
				<stop  offset="0.9689" style="stop-color:#E3C05B"/>
				<stop  offset="1" style="stop-color:#E3C05B"/>
			</linearGradient>
			
				<rect x="292.3" y="387.1" style="clip-path:url(#SVGID_00000032607477839101716510000001553016569853581210_);fill:url(#SVGID_00000033333458279342800000000004545656309349961397_);" width="17.1" height="20.5"/>
		</g>
	</g>
	<g>
		<g>
			<defs>
				<polygon id="SVGID_00000047040693090699630910000000116406084625499781_" points="329.1,376 329.1,407.5 333.9,407.5 
					333.9,392.5 344.5,392.5 344.5,388 333.9,388 333.9,380.5 344.9,380.5 344.9,376 				"/>
			</defs>
			<clipPath id="SVGID_00000049921995000001786600000017182880252632986812_">
				<use xlink:href="#SVGID_00000047040693090699630910000000116406084625499781_"  style="overflow:visible;"/>
			</clipPath>
			
				<linearGradient id="SVGID_00000041282293648192728870000000685818055368745612_" gradientUnits="userSpaceOnUse" x1="300.8005" y1="-297.8719" x2="304.4426" y2="-297.8719" gradientTransform="matrix(0 -8.6641 8.6641 0 2917.7922 3013.7031)">
				<stop  offset="0" style="stop-color:#94722E"/>
				<stop  offset="0.3091" style="stop-color:#E3C05B"/>
				<stop  offset="0.4182" style="stop-color:#EBEBB4"/>
				<stop  offset="0.5758" style="stop-color:#E3C05B"/>
				<stop  offset="0.8424" style="stop-color:#94722E"/>
				<stop  offset="0.9689" style="stop-color:#E3C05B"/>
				<stop  offset="1" style="stop-color:#E3C05B"/>
			</linearGradient>
			
				<rect x="329.1" y="376" style="clip-path:url(#SVGID_00000049921995000001786600000017182880252632986812_);fill:url(#SVGID_00000041282293648192728870000000685818055368745612_);" width="15.8" height="31.6"/>
		</g>
	</g>
	<g>
		<g>
			<defs>
				<path id="SVGID_00000132809325518291511680000011822899401406080700_" d="M349.6,407.5h4.6v-19.9h-4.6V407.5z M349.8,377.3
					c-0.6,0.6-0.9,1.3-0.9,2.1c0,0.8,0.3,1.6,0.9,2.1c0.6,0.6,1.3,0.9,2.1,0.9c0.8,0,1.5-0.3,2.1-0.9s0.9-1.3,0.9-2.1
					c0-0.8-0.3-1.5-0.9-2.1s-1.3-0.9-2.1-0.9C351,376.4,350.3,376.7,349.8,377.3"/>
			</defs>
			<clipPath id="SVGID_00000072271206003091632720000003596214223292755388_">
				<use xlink:href="#SVGID_00000132809325518291511680000011822899401406080700_"  style="overflow:visible;"/>
			</clipPath>
			
				<linearGradient id="SVGID_00000052098285257400849990000009731756519779107971_" gradientUnits="userSpaceOnUse" x1="300.5361" y1="-296.9933" x2="304.1784" y2="-296.9933" gradientTransform="matrix(0 -8.5518 8.5518 0 2891.7275 2977.6626)">
				<stop  offset="0" style="stop-color:#94722E"/>
				<stop  offset="0.3091" style="stop-color:#E3C05B"/>
				<stop  offset="0.4182" style="stop-color:#EBEBB4"/>
				<stop  offset="0.5758" style="stop-color:#E3C05B"/>
				<stop  offset="0.8424" style="stop-color:#94722E"/>
				<stop  offset="0.9689" style="stop-color:#E3C05B"/>
				<stop  offset="1" style="stop-color:#E3C05B"/>
			</linearGradient>
			
				<rect x="348.9" y="376.4" style="clip-path:url(#SVGID_00000072271206003091632720000003596214223292755388_);fill:url(#SVGID_00000052098285257400849990000009731756519779107971_);" width="6" height="31.1"/>
		</g>
	</g>
	<g>
		<g>
			<defs>
				<path id="SVGID_00000105423312072974703320000000611866115704031646_" d="M364.6,389.5v-1.8H360v19.9h4.6V398
					c0-2.5,0.3-4.2,0.9-5.2s1.7-1.5,3.3-1.5c1.4,0,2.4,0.4,2.9,1.1c0.6,0.7,0.8,2.1,0.8,4.1v11.1h4.6v-12.2c0-2.8-0.6-4.8-1.7-6.1
					c-1.3-1.5-3.1-2.2-5.4-2.2C368,387.1,366.2,387.9,364.6,389.5"/>
			</defs>
			<clipPath id="SVGID_00000160872667952298828370000013447549854083284912_">
				<use xlink:href="#SVGID_00000105423312072974703320000000611866115704031646_"  style="overflow:visible;"/>
			</clipPath>
			
				<linearGradient id="SVGID_00000131358886503786582950000007368660897423955097_" gradientUnits="userSpaceOnUse" x1="287.2567" y1="-306.9131" x2="290.9" y2="-306.9131" gradientTransform="matrix(0 -5.617 5.617 0 2092.5305 2021.0583)">
				<stop  offset="0" style="stop-color:#94722E"/>
				<stop  offset="0.3091" style="stop-color:#E3C05B"/>
				<stop  offset="0.4182" style="stop-color:#EBEBB4"/>
				<stop  offset="0.5758" style="stop-color:#E3C05B"/>
				<stop  offset="0.8424" style="stop-color:#94722E"/>
				<stop  offset="0.9689" style="stop-color:#E3C05B"/>
				<stop  offset="1" style="stop-color:#E3C05B"/>
			</linearGradient>
			
				<rect x="360" y="387.1" style="clip-path:url(#SVGID_00000160872667952298828370000013447549854083284912_);fill:url(#SVGID_00000131358886503786582950000007368660897423955097_);" width="17.2" height="20.5"/>
		</g>
	</g>
	<g>
		<g>
			<defs>
				<path id="SVGID_00000113342679953140696440000002305941437869077695_" d="M388.2,402.2c-1-1.2-1.5-2.8-1.5-4.7
					c0-1.8,0.5-3.3,1.6-4.5s2.4-1.8,4-1.8c1.7,0,3,0.6,4.1,1.8c1.1,1.2,1.6,2.8,1.6,4.6c0,1.9-0.5,3.4-1.6,4.6
					c-1,1.2-2.4,1.8-4.1,1.8S389.3,403.4,388.2,402.2 M384.7,390.1c-1.8,2-2.7,4.5-2.7,7.5s0.9,5.6,2.7,7.6c1.8,2,4.1,3,6.8,3
					c2.2,0,4.2-0.9,6.1-2.6v2.1h4.6v-19.9h-4.6v2.3c-1.8-1.9-3.9-2.9-6.2-2.9C388.7,387.1,386.5,388.1,384.7,390.1"/>
			</defs>
			<clipPath id="SVGID_00000130622715549591688690000014835500546726028688_">
				<use xlink:href="#SVGID_00000113342679953140696440000002305941437869077695_"  style="overflow:visible;"/>
			</clipPath>
			
				<linearGradient id="SVGID_00000008139995378702836820000002068232148591538850_" gradientUnits="userSpaceOnUse" x1="288.1321" y1="-302.947" x2="291.7747" y2="-302.947" gradientTransform="matrix(0 -5.7742 5.7742 0 2141.3765 2071.8328)">
				<stop  offset="0" style="stop-color:#94722E"/>
				<stop  offset="0.3091" style="stop-color:#E3C05B"/>
				<stop  offset="0.4182" style="stop-color:#EBEBB4"/>
				<stop  offset="0.5758" style="stop-color:#E3C05B"/>
				<stop  offset="0.8424" style="stop-color:#94722E"/>
				<stop  offset="0.9689" style="stop-color:#E3C05B"/>
				<stop  offset="1" style="stop-color:#E3C05B"/>
			</linearGradient>
			
				<rect x="382" y="387.1" style="clip-path:url(#SVGID_00000130622715549591688690000014835500546726028688_);fill:url(#SVGID_00000008139995378702836820000002068232148591538850_);" width="20.2" height="21"/>
		</g>
	</g>
	<g>
		<g>
			<defs>
				<path id="SVGID_00000047058204526282019200000012099080634407869845_" d="M412.7,389.5v-1.8H408v19.9h4.6V398
					c0-2.5,0.3-4.2,0.9-5.2s1.7-1.5,3.3-1.5c1.4,0,2.4,0.4,2.9,1.1s0.8,2.1,0.8,4.1v11.1h4.6v-12.2c0-2.8-0.6-4.8-1.7-6.1
					c-1.3-1.5-3.1-2.2-5.4-2.2C416.1,387.1,414.3,387.9,412.7,389.5"/>
			</defs>
			<clipPath id="SVGID_00000049190312899844312780000014592195106192787087_">
				<use xlink:href="#SVGID_00000047058204526282019200000012099080634407869845_"  style="overflow:visible;"/>
			</clipPath>
			
				<linearGradient id="SVGID_00000011721654323554217090000001575432142346723220_" gradientUnits="userSpaceOnUse" x1="287.2567" y1="-300.7249" x2="290.9" y2="-300.7249" gradientTransform="matrix(0 -5.617 5.617 0 2105.7219 2021.0583)">
				<stop  offset="0" style="stop-color:#94722E"/>
				<stop  offset="0.3091" style="stop-color:#E3C05B"/>
				<stop  offset="0.4182" style="stop-color:#EBEBB4"/>
				<stop  offset="0.5758" style="stop-color:#E3C05B"/>
				<stop  offset="0.8424" style="stop-color:#94722E"/>
				<stop  offset="0.9689" style="stop-color:#E3C05B"/>
				<stop  offset="1" style="stop-color:#E3C05B"/>
			</linearGradient>
			
				<rect x="408" y="387.1" style="clip-path:url(#SVGID_00000049190312899844312780000014592195106192787087_);fill:url(#SVGID_00000011721654323554217090000001575432142346723220_);" width="17.1" height="20.5"/>
		</g>
	</g>
	<g>
		<g>
			<defs>
				<path id="SVGID_00000097471968855081904960000017870350084808592008_" d="M433.2,390.1c-2.1,2-3.2,4.5-3.2,7.5s1,5.5,3.1,7.5
					s4.6,3,7.7,3c1.9,0,3.7-0.5,5.6-1.4v-6.1c-1.1,1.3-2.1,2.2-2.9,2.7c-0.9,0.5-1.8,0.7-2.9,0.7c-1.7,0-3.2-0.6-4.3-1.8
					c-1.1-1.2-1.7-2.7-1.7-4.6c0-1.8,0.6-3.3,1.7-4.6c1.2-1.2,2.6-1.8,4.3-1.8c1.1,0,2.1,0.2,2.9,0.7s1.8,1.4,2.8,2.6v-6.1
					c-1.8-0.9-3.6-1.4-5.6-1.4C437.9,387.1,435.3,388.1,433.2,390.1"/>
			</defs>
			<clipPath id="SVGID_00000155136157143659265500000011104771447698565528_">
				<use xlink:href="#SVGID_00000097471968855081904960000017870350084808592008_"  style="overflow:visible;"/>
			</clipPath>
			
				<linearGradient id="SVGID_00000183213291747420889140000000318275810824632216_" gradientUnits="userSpaceOnUse" x1="288.1321" y1="-297.1404" x2="291.7747" y2="-297.1404" gradientTransform="matrix(0 -5.7742 5.7742 0 2154.0483 2071.8328)">
				<stop  offset="0" style="stop-color:#94722E"/>
				<stop  offset="0.3091" style="stop-color:#E3C05B"/>
				<stop  offset="0.4182" style="stop-color:#EBEBB4"/>
				<stop  offset="0.5758" style="stop-color:#E3C05B"/>
				<stop  offset="0.8424" style="stop-color:#94722E"/>
				<stop  offset="0.9689" style="stop-color:#E3C05B"/>
				<stop  offset="1" style="stop-color:#E3C05B"/>
			</linearGradient>
			
				<rect x="430.1" y="387.1" style="clip-path:url(#SVGID_00000155136157143659265500000011104771447698565528_);fill:url(#SVGID_00000183213291747420889140000000318275810824632216_);" width="16.4" height="21"/>
		</g>
	</g>
	<g>
		<g>
			<defs>
				<path id="SVGID_00000143582391966925995750000014483676201982629285_" d="M450.9,407.5h4.6v-19.9h-4.6V407.5z M451.1,377.3
					c-0.6,0.6-0.9,1.3-0.9,2.1c0,0.8,0.3,1.6,0.9,2.1c0.6,0.6,1.3,0.9,2.1,0.9c0.8,0,1.5-0.3,2.1-0.9s0.9-1.3,0.9-2.1
					c0-0.8-0.3-1.5-0.9-2.1s-1.3-0.9-2.1-0.9S451.7,376.7,451.1,377.3"/>
			</defs>
			<clipPath id="SVGID_00000177475311500555227170000005094710896030374785_">
				<use xlink:href="#SVGID_00000143582391966925995750000014483676201982629285_"  style="overflow:visible;"/>
			</clipPath>
			
				<linearGradient id="SVGID_00000081626130726043437760000017327798254374710918_" gradientUnits="userSpaceOnUse" x1="300.5361" y1="-288.3911" x2="304.1784" y2="-288.3911" gradientTransform="matrix(0 -8.5518 8.5518 0 2919.5635 2977.6626)">
				<stop  offset="0" style="stop-color:#94722E"/>
				<stop  offset="0.3091" style="stop-color:#E3C05B"/>
				<stop  offset="0.4182" style="stop-color:#EBEBB4"/>
				<stop  offset="0.5758" style="stop-color:#E3C05B"/>
				<stop  offset="0.8424" style="stop-color:#94722E"/>
				<stop  offset="0.9689" style="stop-color:#E3C05B"/>
				<stop  offset="1" style="stop-color:#E3C05B"/>
			</linearGradient>
			
				<rect x="450.3" y="376.4" style="clip-path:url(#SVGID_00000177475311500555227170000005094710896030374785_);fill:url(#SVGID_00000081626130726043437760000017327798254374710918_);" width="6" height="31.1"/>
		</g>
	</g>
	<g>
		<g>
			<defs>
				<path id="SVGID_00000061461505184428593400000001242706104441022105_" d="M466.7,402.2c-1-1.2-1.5-2.8-1.5-4.7
					c0-1.8,0.5-3.3,1.6-4.5s2.4-1.8,4-1.8c1.7,0,3,0.6,4.1,1.8c1.1,1.2,1.6,2.8,1.6,4.6c0,1.9-0.5,3.4-1.6,4.6
					c-1,1.2-2.4,1.8-4.1,1.8C469,404,467.7,403.4,466.7,402.2 M463.1,390.1c-1.8,2-2.7,4.5-2.7,7.5s0.9,5.6,2.7,7.6
					c1.8,2,4.1,3,6.8,3c2.2,0,4.2-0.9,6.1-2.6v2.1h4.6v-19.9H476v2.3c-1.9-1.9-3.9-2.9-6.2-2.9C467.1,387.1,464.9,388.1,463.1,390.1
					"/>
			</defs>
			<clipPath id="SVGID_00000071534826894723298000000005996385623852124831_">
				<use xlink:href="#SVGID_00000061461505184428593400000001242706104441022105_"  style="overflow:visible;"/>
			</clipPath>
			
				<linearGradient id="SVGID_00000046327265383542762300000013927470559925109930_" gradientUnits="userSpaceOnUse" x1="288.1321" y1="-293.0982" x2="291.7747" y2="-293.0982" gradientTransform="matrix(0 -5.7742 5.7742 0 2162.9077 2071.8328)">
				<stop  offset="0" style="stop-color:#94722E"/>
				<stop  offset="0.3091" style="stop-color:#E3C05B"/>
				<stop  offset="0.4182" style="stop-color:#EBEBB4"/>
				<stop  offset="0.5758" style="stop-color:#E3C05B"/>
				<stop  offset="0.8424" style="stop-color:#94722E"/>
				<stop  offset="0.9689" style="stop-color:#E3C05B"/>
				<stop  offset="1" style="stop-color:#E3C05B"/>
			</linearGradient>
			
				<rect x="460.4" y="387.1" style="clip-path:url(#SVGID_00000071534826894723298000000005996385623852124831_);fill:url(#SVGID_00000046327265383542762300000013927470559925109930_);" width="20.2" height="21"/>
		</g>
	</g>
	<g>
		<g>
			<defs>
				<rect id="SVGID_00000029038232034350499950000009561069212408163719_" x="486.5" y="373" width="4.6" height="34.5"/>
			</defs>
			<clipPath id="SVGID_00000119831094322903737230000003443049926252300171_">
				<use xlink:href="#SVGID_00000029038232034350499950000009561069212408163719_"  style="overflow:visible;"/>
			</clipPath>
			
				<linearGradient id="SVGID_00000162313568445134807350000013947547488604463502_" gradientUnits="userSpaceOnUse" x1="303.0126" y1="-284.2504" x2="306.6527" y2="-284.2504" gradientTransform="matrix(0 -9.4777 9.4777 0 3182.8398 3279.4006)">
				<stop  offset="0" style="stop-color:#94722E"/>
				<stop  offset="0.3091" style="stop-color:#E3C05B"/>
				<stop  offset="0.4182" style="stop-color:#EBEBB4"/>
				<stop  offset="0.5758" style="stop-color:#E3C05B"/>
				<stop  offset="0.8424" style="stop-color:#94722E"/>
				<stop  offset="0.9689" style="stop-color:#E3C05B"/>
				<stop  offset="1" style="stop-color:#E3C05B"/>
			</linearGradient>
			
				<rect x="486.5" y="373" style="clip-path:url(#SVGID_00000119831094322903737230000003443049926252300171_);fill:url(#SVGID_00000162313568445134807350000013947547488604463502_);" width="4.6" height="34.5"/>
		</g>
	</g>
	<g>
		<g>
			<defs>
				<path id="SVGID_00000060017245470639428930000002604171570146171046_" d="M513.2,377.8c-1.8,1.6-2.7,3.6-2.7,5.9
					c0,3.5,2.2,6.2,6.5,8l3,1.3c0.8,0.3,1.5,0.7,2,1.1c0.6,0.4,1,0.8,1.4,1.2c0.4,0.4,0.6,0.9,0.8,1.4s0.2,1.1,0.2,1.7
					c0,1.5-0.5,2.8-1.5,3.8s-2.2,1.5-3.7,1.5c-1.9,0-3.3-0.7-4.3-2c-0.5-0.7-0.9-2-1.1-3.8L509,399c0.4,2.9,1.5,5.2,3.3,6.8
					c1.8,1.6,4,2.4,6.8,2.4c2.9,0,5.3-0.9,7.2-2.9c1.9-1.9,2.9-4.3,2.9-7.2c0-2.2-0.6-4-1.8-5.5s-3.1-2.8-5.6-3.8l-3.1-1.3
					c-2.3-0.9-3.4-2.2-3.4-3.7c0-1.1,0.4-2,1.3-2.8c0.9-0.7,2-1.1,3.3-1.1c1.1,0,2,0.2,2.6,0.7c0.7,0.4,1.4,1.2,2.1,2.5l3.9-2.3
					c-2-3.5-4.9-5.3-8.5-5.3C517.3,375.4,515.1,376.2,513.2,377.8"/>
			</defs>
			<clipPath id="SVGID_00000093157533810851553380000018405733552673353602_">
				<use xlink:href="#SVGID_00000060017245470639428930000002604171570146171046_"  style="overflow:visible;"/>
			</clipPath>
			
				<linearGradient id="SVGID_00000152252215374240427930000017370092924885652876_" gradientUnits="userSpaceOnUse" x1="301.7229" y1="-282.3644" x2="305.3653" y2="-282.3644" gradientTransform="matrix(0 -8.9895 8.9895 0 3057.5149 3120.438)">
				<stop  offset="0" style="stop-color:#94722E"/>
				<stop  offset="0.3091" style="stop-color:#E3C05B"/>
				<stop  offset="0.4182" style="stop-color:#EBEBB4"/>
				<stop  offset="0.5758" style="stop-color:#E3C05B"/>
				<stop  offset="0.8424" style="stop-color:#94722E"/>
				<stop  offset="0.9689" style="stop-color:#E3C05B"/>
				<stop  offset="1" style="stop-color:#E3C05B"/>
			</linearGradient>
			
				<rect x="509.1" y="375.4" style="clip-path:url(#SVGID_00000093157533810851553380000018405733552673353602_);fill:url(#SVGID_00000152252215374240427930000017370092924885652876_);" width="20.2" height="32.7"/>
		</g>
	</g>
	<g>
		<g>
			<defs>
				<path id="SVGID_00000181792502424989449690000006774639623248677267_" d="M539,393.4c0.3-0.5,0.6-0.8,1-1.2
					c0.4-0.3,0.8-0.6,1.3-0.7c0.5-0.2,1-0.3,1.6-0.3c2.5,0,4,1.2,4.6,3.7h-9.2C538.5,394.3,538.7,393.8,539,393.4 M535.9,390
					c-1.7,1.9-2.6,4.5-2.6,7.6c0,3.2,0.9,5.7,2.7,7.6s4.2,2.9,7.2,2.9c1,0,2-0.1,2.9-0.3c0.9-0.2,1.7-0.6,2.5-1
					c0.8-0.5,1.5-1.1,2.1-1.8c0.7-0.7,1.3-1.6,1.9-2.6l-3.9-2.2c-0.9,1.5-1.8,2.5-2.5,3c-0.8,0.5-1.7,0.8-2.8,0.8
					c-1.5,0-2.7-0.5-3.6-1.4c-0.9-1-1.5-2.3-1.6-3.9h14.3v-1.1c0-3.3-0.8-5.8-2.5-7.7c-1.7-1.9-4-2.8-6.9-2.8
					C540,387.1,537.6,388,535.9,390"/>
			</defs>
			<clipPath id="SVGID_00000119814706868201492360000002272791227588771472_">
				<use xlink:href="#SVGID_00000181792502424989449690000006774639623248677267_"  style="overflow:visible;"/>
			</clipPath>
			
				<linearGradient id="SVGID_00000093875968393382255440000009728164996878549923_" gradientUnits="userSpaceOnUse" x1="288.1321" y1="-283.991" x2="291.7747" y2="-283.991" gradientTransform="matrix(0 -5.7742 5.7742 0 2182.771 2071.8328)">
				<stop  offset="0" style="stop-color:#94722E"/>
				<stop  offset="0.3091" style="stop-color:#E3C05B"/>
				<stop  offset="0.4182" style="stop-color:#EBEBB4"/>
				<stop  offset="0.5758" style="stop-color:#E3C05B"/>
				<stop  offset="0.8424" style="stop-color:#94722E"/>
				<stop  offset="0.9689" style="stop-color:#E3C05B"/>
				<stop  offset="1" style="stop-color:#E3C05B"/>
			</linearGradient>
			
				<rect x="533.3" y="387.1" style="clip-path:url(#SVGID_00000119814706868201492360000002272791227588771472_);fill:url(#SVGID_00000093875968393382255440000009728164996878549923_);" width="19.3" height="21"/>
		</g>
	</g>
	<g>
		<g>
			<defs>
				<path id="SVGID_00000004512320117664898560000006609399002977270916_" d="M564.2,387.6c-0.7,0.3-1.4,0.9-2.2,1.8v-1.8h-4.6v19.9
					h4.6v-10.3c0-3.8,1.3-5.7,3.8-5.7c0.8,0,1.7,0.3,2.5,0.9l2.1-4.2c-1.3-0.8-2.6-1.2-3.8-1.2C565.7,387.1,564.9,387.3,564.2,387.6
					"/>
			</defs>
			<clipPath id="SVGID_00000098921416917846639460000011243527801599783346_">
				<use xlink:href="#SVGID_00000004512320117664898560000006609399002977270916_"  style="overflow:visible;"/>
			</clipPath>
			
				<linearGradient id="SVGID_00000093868033037035507200000008339377267932473997_" gradientUnits="userSpaceOnUse" x1="287.2567" y1="-281.6898" x2="290.9" y2="-281.6898" gradientTransform="matrix(0 -5.617 5.617 0 2146.1516 2021.0583)">
				<stop  offset="0" style="stop-color:#94722E"/>
				<stop  offset="0.3091" style="stop-color:#E3C05B"/>
				<stop  offset="0.4182" style="stop-color:#EBEBB4"/>
				<stop  offset="0.5758" style="stop-color:#E3C05B"/>
				<stop  offset="0.8424" style="stop-color:#94722E"/>
				<stop  offset="0.9689" style="stop-color:#E3C05B"/>
				<stop  offset="1" style="stop-color:#E3C05B"/>
			</linearGradient>
			
				<rect x="557.4" y="387.1" style="clip-path:url(#SVGID_00000098921416917846639460000011243527801599783346_);fill:url(#SVGID_00000093868033037035507200000008339377267932473997_);" width="13" height="20.5"/>
		</g>
	</g>
	<g>
		<g>
			<defs>
				<polygon id="SVGID_00000173854084248369707650000016596323904967940538_" points="587.6,387.6 582.4,398.8 577.3,387.6 
					572.2,387.6 582.4,408.9 592.7,387.6 				"/>
			</defs>
			<clipPath id="SVGID_00000012465922220662510490000014189961680111105690_">
				<use xlink:href="#SVGID_00000173854084248369707650000016596323904967940538_"  style="overflow:visible;"/>
			</clipPath>
			
				<linearGradient id="SVGID_00000147910826382065161230000018044897823396735418_" gradientUnits="userSpaceOnUse" x1="288.5195" y1="-279.0175" x2="292.161" y2="-279.0175" gradientTransform="matrix(0 -5.8415 5.8415 0 2212.3809 2094.2866)">
				<stop  offset="0" style="stop-color:#94722E"/>
				<stop  offset="0.3091" style="stop-color:#E3C05B"/>
				<stop  offset="0.4182" style="stop-color:#EBEBB4"/>
				<stop  offset="0.5758" style="stop-color:#E3C05B"/>
				<stop  offset="0.8424" style="stop-color:#94722E"/>
				<stop  offset="0.9689" style="stop-color:#E3C05B"/>
				<stop  offset="1" style="stop-color:#E3C05B"/>
			</linearGradient>
			
				<rect x="572.2" y="387.6" style="clip-path:url(#SVGID_00000012465922220662510490000014189961680111105690_);fill:url(#SVGID_00000147910826382065161230000018044897823396735418_);" width="20.6" height="21.3"/>
		</g>
	</g>
	<g>
		<g>
			<defs>
				<path id="SVGID_00000008831057274193946670000015033548923201278353_" d="M595.9,407.5h4.6v-19.9h-4.6V407.5z M596,377.3
					c-0.6,0.6-0.9,1.3-0.9,2.1c0,0.8,0.3,1.6,0.9,2.1c0.6,0.6,1.3,0.9,2.1,0.9s1.5-0.3,2.1-0.9s0.9-1.3,0.9-2.1
					c0-0.8-0.3-1.5-0.9-2.1c-0.6-0.6-1.3-0.9-2.1-0.9S596.6,376.7,596,377.3"/>
			</defs>
			<clipPath id="SVGID_00000031893836885559865730000015537175572829958061_">
				<use xlink:href="#SVGID_00000008831057274193946670000015033548923201278353_"  style="overflow:visible;"/>
			</clipPath>
			
				<linearGradient id="SVGID_00000065758416671150138730000001527334670655263930_" gradientUnits="userSpaceOnUse" x1="300.5361" y1="-276.0992" x2="304.1784" y2="-276.0992" gradientTransform="matrix(0 -8.5518 8.5518 0 2959.3447 2977.6626)">
				<stop  offset="0" style="stop-color:#94722E"/>
				<stop  offset="0.3091" style="stop-color:#E3C05B"/>
				<stop  offset="0.4182" style="stop-color:#EBEBB4"/>
				<stop  offset="0.5758" style="stop-color:#E3C05B"/>
				<stop  offset="0.8424" style="stop-color:#94722E"/>
				<stop  offset="0.9689" style="stop-color:#E3C05B"/>
				<stop  offset="1" style="stop-color:#E3C05B"/>
			</linearGradient>
			
				<rect x="595.2" y="376.4" style="clip-path:url(#SVGID_00000031893836885559865730000015537175572829958061_);fill:url(#SVGID_00000065758416671150138730000001527334670655263930_);" width="6" height="31.1"/>
		</g>
	</g>
	<g>
		<g>
			<defs>
				<path id="SVGID_00000088814124712373369980000008729784954131371951_" d="M608.5,390.1c-2.1,2-3.1,4.5-3.1,7.5s1,5.5,3.1,7.5
					s4.6,3,7.7,3c1.9,0,3.7-0.5,5.6-1.4v-6.1c-1.1,1.3-2.1,2.2-2.9,2.7c-0.8,0.5-1.8,0.7-2.9,0.7c-1.7,0-3.2-0.6-4.3-1.8
					c-1.1-1.2-1.7-2.7-1.7-4.6c0-1.8,0.6-3.3,1.7-4.6c1.1-1.2,2.6-1.8,4.3-1.8c1.1,0,2.1,0.2,2.9,0.7c0.8,0.5,1.8,1.4,2.8,2.6v-6.1
					c-1.7-0.9-3.6-1.4-5.6-1.4C613.2,387.1,610.6,388.1,608.5,390.1"/>
			</defs>
			<clipPath id="SVGID_00000085212444412548948980000006997027047459218311_">
				<use xlink:href="#SVGID_00000088814124712373369980000008729784954131371951_"  style="overflow:visible;"/>
			</clipPath>
			
				<linearGradient id="SVGID_00000016759614216999806740000016174624178903728784_" gradientUnits="userSpaceOnUse" x1="288.1321" y1="-275.1331" x2="291.7747" y2="-275.1331" gradientTransform="matrix(0 -5.7742 5.7742 0 2202.1733 2071.8328)">
				<stop  offset="0" style="stop-color:#94722E"/>
				<stop  offset="0.3091" style="stop-color:#E3C05B"/>
				<stop  offset="0.4182" style="stop-color:#EBEBB4"/>
				<stop  offset="0.5758" style="stop-color:#E3C05B"/>
				<stop  offset="0.8424" style="stop-color:#94722E"/>
				<stop  offset="0.9689" style="stop-color:#E3C05B"/>
				<stop  offset="1" style="stop-color:#E3C05B"/>
			</linearGradient>
			
				<rect x="605.3" y="387.1" style="clip-path:url(#SVGID_00000085212444412548948980000006997027047459218311_);fill:url(#SVGID_00000016759614216999806740000016174624178903728784_);" width="16.4" height="21"/>
		</g>
	</g>
	<g>
		<g>
			<defs>
				<path id="SVGID_00000117650268913180606780000010829968471552054677_" d="M631.1,393.4c0.3-0.5,0.6-0.8,1-1.2
					c0.4-0.3,0.9-0.6,1.3-0.7c0.5-0.2,1-0.3,1.6-0.3c2.4,0,4,1.2,4.6,3.7h-9.2C630.6,394.3,630.8,393.8,631.1,393.4 M627.9,390
					c-1.7,1.9-2.6,4.5-2.6,7.6c0,3.2,0.9,5.7,2.7,7.6s4.2,2.9,7.2,2.9c1,0,2-0.1,2.9-0.3c0.9-0.2,1.7-0.6,2.5-1
					c0.8-0.5,1.5-1.1,2.1-1.8c0.7-0.7,1.3-1.6,1.9-2.6l-3.9-2.2c-0.9,1.5-1.8,2.5-2.5,3s-1.7,0.8-2.8,0.8c-1.5,0-2.7-0.5-3.6-1.4
					c-0.9-1-1.5-2.3-1.6-3.9h14.3v-1.1c0-3.3-0.8-5.8-2.5-7.7c-1.7-1.9-4-2.8-6.9-2.8C632,387.1,629.7,388,627.9,390"/>
			</defs>
			<clipPath id="SVGID_00000170251690451924493630000003969227381135263396_">
				<use xlink:href="#SVGID_00000117650268913180606780000010829968471552054677_"  style="overflow:visible;"/>
			</clipPath>
			
				<linearGradient id="SVGID_00000160176497584478142890000012880769875647735708_" gradientUnits="userSpaceOnUse" x1="288.1321" y1="-272.433" x2="291.7747" y2="-272.433" gradientTransform="matrix(0 -5.7742 5.7742 0 2208.0327 2071.8328)">
				<stop  offset="0" style="stop-color:#94722E"/>
				<stop  offset="0.3091" style="stop-color:#E3C05B"/>
				<stop  offset="0.4182" style="stop-color:#EBEBB4"/>
				<stop  offset="0.5758" style="stop-color:#E3C05B"/>
				<stop  offset="0.8424" style="stop-color:#94722E"/>
				<stop  offset="0.9689" style="stop-color:#E3C05B"/>
				<stop  offset="1" style="stop-color:#E3C05B"/>
			</linearGradient>
			
				<rect x="625.3" y="387.1" style="clip-path:url(#SVGID_00000170251690451924493630000003969227381135263396_);fill:url(#SVGID_00000160176497584478142890000012880769875647735708_);" width="19.3" height="21"/>
		</g>
	</g>
	<g>
		<g>
			<defs>
				<path id="SVGID_00000147193548170380773620000000011602336413020050_" d="M650.9,388.8c-1.2,1.1-1.8,2.6-1.8,4.3
					c0,1.3,0.4,2.4,1,3.2c0.6,0.7,1.5,1.3,2.8,2c0.5,0.2,0.9,0.5,1.4,0.7s0.9,0.4,1.4,0.7c1.2,0.7,1.8,1.5,1.8,2.3
					c0,1.4-0.8,2.1-2.3,2.1c-0.8,0-1.4-0.3-2-0.8c-0.3-0.3-0.7-0.9-1.2-1.8l-3.9,1.8c1.4,3.3,3.7,4.9,7.1,4.9c2,0,3.6-0.6,5-1.8
					c1.4-1.3,2.1-2.9,2.1-4.8c0-1.5-0.4-2.7-1.3-3.6c-0.9-0.9-2.5-1.8-4.9-2.9c-1.8-0.8-2.7-1.5-2.7-2.3c0-0.4,0.2-0.8,0.5-1.1
					c0.3-0.3,0.7-0.4,1.1-0.4c0.9,0,1.6,0.6,2.2,1.8l3.8-2c-1.2-2.6-3.1-4-5.7-4C653.5,387.1,652.1,387.6,650.9,388.8"/>
			</defs>
			<clipPath id="SVGID_00000157266354415182120680000015385342081399411890_">
				<use xlink:href="#SVGID_00000147193548170380773620000000011602336413020050_"  style="overflow:visible;"/>
			</clipPath>
			
				<linearGradient id="SVGID_00000078734571776119982720000010953475814071501986_" gradientUnits="userSpaceOnUse" x1="288.1321" y1="-269.9053" x2="291.7747" y2="-269.9053" gradientTransform="matrix(0 -5.7742 5.7742 0 2213.5874 2071.8328)">
				<stop  offset="0" style="stop-color:#94722E"/>
				<stop  offset="0.3091" style="stop-color:#E3C05B"/>
				<stop  offset="0.4182" style="stop-color:#EBEBB4"/>
				<stop  offset="0.5758" style="stop-color:#E3C05B"/>
				<stop  offset="0.8424" style="stop-color:#94722E"/>
				<stop  offset="0.9689" style="stop-color:#E3C05B"/>
				<stop  offset="1" style="stop-color:#E3C05B"/>
			</linearGradient>
			
				<rect x="648" y="387.1" style="clip-path:url(#SVGID_00000157266354415182120680000015385342081399411890_);fill:url(#SVGID_00000078734571776119982720000010953475814071501986_);" width="14.2" height="21"/>
		</g>
	</g>
	<g>
		<g>
			<defs>
				<path id="SVGID_00000017483492922973303790000003782725139248774564_" d="M609.3,156.1c-49.3-5.2-64.1,19.8-64.1,19.8v0.2
					l-12.7,16.5l-4.2,57.4l-2.2,30.4c181.3-8,240.4-81.9,240.4-81.9c-105,33.1-129,15.9-129,15.9c149-0.6,149.4-61.6,149.4-61.6
					c-70.2,47-146.2,28.5-146.2,28.5c171.2-3.9,159.4-87.8,159.4-87.8C730.4,159.2,609.3,156.1,609.3,156.1"/>
			</defs>
			<clipPath id="SVGID_00000173843202199481244130000006208919707856979372_">
				<use xlink:href="#SVGID_00000017483492922973303790000003782725139248774564_"  style="overflow:visible;"/>
			</clipPath>
			
				<linearGradient id="SVGID_00000172438161728187000880000000146140166643358604_" gradientUnits="userSpaceOnUse" x1="323.452" y1="-274.2713" x2="327.0928" y2="-274.2713" gradientTransform="matrix(0 -102.9884 -102.9884 0 -27577.6152 33780.5664)">
				<stop  offset="0" style="stop-color:#94722E"/>
				<stop  offset="0.3091" style="stop-color:#E3C05B"/>
				<stop  offset="0.4182" style="stop-color:#EBEBB4"/>
				<stop  offset="0.5758" style="stop-color:#E3C05B"/>
				<stop  offset="0.8424" style="stop-color:#94722E"/>
				<stop  offset="0.9689" style="stop-color:#E3C05B"/>
				<stop  offset="1" style="stop-color:#E3C05B"/>
			</linearGradient>
			
				<rect x="526.2" y="93.4" style="clip-path:url(#SVGID_00000173843202199481244130000006208919707856979372_);fill:url(#SVGID_00000172438161728187000880000000146140166643358604_);" width="285.9" height="186.9"/>
		</g>
	</g>
	<g>
		<g>
			<defs>
				<path id="SVGID_00000032642366802865735710000011735683704753318582_" d="M209.5,181.2c0,0-76,18.5-146.2-28.5
					c0,0,0.3,61,149.4,61.6c0,0-24,17.2-129-15.9c0,0,59.1,73.9,240.4,81.9L322,250l-4.2-57.4l-12.6-16.5v-0.2
					c0,0-14.8-25-64.1-19.8c0,0-121.1,3.1-191-62.7C50.1,93.4,38.3,177.3,209.5,181.2"/>
			</defs>
			<clipPath id="SVGID_00000065063456048189812310000012293908006486691202_">
				<use xlink:href="#SVGID_00000032642366802865735710000011735683704753318582_"  style="overflow:visible;"/>
			</clipPath>
			
				<linearGradient id="SVGID_00000031207446579008076520000016123807374271564987_" gradientUnits="userSpaceOnUse" x1="323.452" y1="-277.0637" x2="327.0928" y2="-277.0637" gradientTransform="matrix(0 -102.9884 102.9884 0 28715.5996 33780.5664)">
				<stop  offset="0" style="stop-color:#94722E"/>
				<stop  offset="0.3091" style="stop-color:#E3C05B"/>
				<stop  offset="0.4182" style="stop-color:#EBEBB4"/>
				<stop  offset="0.5758" style="stop-color:#E3C05B"/>
				<stop  offset="0.8424" style="stop-color:#94722E"/>
				<stop  offset="0.9689" style="stop-color:#E3C05B"/>
				<stop  offset="1" style="stop-color:#E3C05B"/>
			</linearGradient>
			
				<rect x="38.3" y="93.4" style="clip-path:url(#SVGID_00000065063456048189812310000012293908006486691202_);fill:url(#SVGID_00000031207446579008076520000016123807374271564987_);" width="285.9" height="186.9"/>
		</g>
	</g>
	<g>
		<g>
			<defs>
				<path id="SVGID_00000059296192742606719920000016552837209302767510_" d="M403.3,102.3c-33.6,6-60.3,23.7-79.3,52.5
					c-17.6,26.6-23.6,56-18.1,87.4c5.7,32.2,21.9,58.1,48.2,77.1c21.3,15.4,44.7,23.2,69.8,23.2c7.7,0,15.6-0.7,23.7-2.2
					c25.2-4.6,47.2-16.6,65.4-35.5c30.3-31.6,41-77.4,27.9-119.5c-1-3.2-3.7-3.3-4.5-3.2c-20.8,0-39.5,0-57.2,0l0,0
					c-2.2,0-3.7,0.9-4.7,3c-6.5,13.1-13.1,26.2-19.6,39.2l-3.5,7l-26.1-52.2l-26.1,52.2l-3-5.9c-6.4-12.7-12.7-25.4-19-38.2
					L364,213.5l35.1,70.2l26.1-52.2l26,52l2.5-4.7c0.3-0.5,0.5-0.9,0.7-1.3l23.6-47.1c4.1-8.3,8.3-16.6,12.4-24.8
					c9.2,0,18.5-0.1,27.8,0h3.4c2.5,16,1.3,31.5-3.6,46.3c-14.8,44.4-58.8,72.3-104.5,66.5c-23.7-3-43.7-13.1-59.3-29.9
					c-20.6-22.2-29.4-48.5-26-78.4c2.7-23.8,12.8-43.9,30-59.7c26.2-24,56.9-31.9,91.2-23.6c14,3.4,26.6,9.7,37.4,18.6l0.7,0.5h32.7
					l-3.4-3.9c-2.7-3.1-5.4-5.9-8.1-8.4c-24.1-22.2-51.6-33.4-81.8-33.4C419.2,100.2,411.4,100.9,403.3,102.3"/>
			</defs>
			<clipPath id="SVGID_00000033367995591684473600000016813502488264106164_">
				<use xlink:href="#SVGID_00000059296192742606719920000016552837209302767510_"  style="overflow:visible;"/>
			</clipPath>
			
				<linearGradient id="SVGID_00000006672982760259225600000002650072862942625967_" gradientUnits="userSpaceOnUse" x1="322.5172" y1="-272.6852" x2="326.1584" y2="-272.6852" gradientTransform="matrix(66.5615 0 0 66.5615 -21163.2734 18371.6836)">
				<stop  offset="0" style="stop-color:#94722E"/>
				<stop  offset="0.3091" style="stop-color:#E3C05B"/>
				<stop  offset="0.4182" style="stop-color:#EBEBB4"/>
				<stop  offset="0.5758" style="stop-color:#E3C05B"/>
				<stop  offset="0.8424" style="stop-color:#94722E"/>
				<stop  offset="0.9689" style="stop-color:#E3C05B"/>
				<stop  offset="1" style="stop-color:#E3C05B"/>
			</linearGradient>
			
				<rect x="300.4" y="100.2" style="clip-path:url(#SVGID_00000033367995591684473600000016813502488264106164_);fill:url(#SVGID_00000006672982760259225600000002650072862942625967_);" width="253.6" height="242.3"/>
		</g>
	</g>
</g>
</svg>
