<svg id="bf2e4893-c202-426d-985b-16f88d9564fc" data-name="Capa 1" xmlns="http://www.w3.org/2000/svg" viewBox="0 0 162.71 55">
  <defs>
    <style>
      .a6360506-0599-4192-bb69-2eadf6479c2c {
        fill: #f5821f;
      }

      .a6360506-0599-4192-bb69-2eadf6479c2c, .aecd2cec-441b-49ab-a8f4-e2271194f396 {
        fill-rule: evenodd;
      }

      .b41c716f-c340-4759-9178-481edc0e5343, .eb02d863-b183-4793-abf4-666fe0c1d8fd {
        fill: none;
      }

      .b41c716f-c340-4759-9178-481edc0e5343 {
        stroke: #f5821f;
        stroke-width: 1.5px;
      }

      .aecd2cec-441b-49ab-a8f4-e2271194f396 {
        fill: #28777d;
      }

      .eb02d863-b183-4793-abf4-666fe0c1d8fd {
        stroke: #28777d;
        stroke-width: 0.86px;
      }
    </style>
  </defs>
  <g>
    <path class="a6360506-0599-4192-bb69-2eadf6479c2c" d="M81.67,9c3.09,4.15,16.63,22.28,17.68,27.18.75,3.52-1.5,7.89-4.29,10.28-9.33,7.67-20.89,4.76-27.35-1.4-3.88-2.88-5.88-7.82-3.41-12.68a164.33,164.33,0,0,1,13-24.76c.9-1.27,2.06-3.4,3.84-3.59s2,1.52.74,1.34a2.65,2.65,0,0,0-2.24,1.5c-4.43,9.26-9.12,17.37-13.87,26A9,9,0,0,0,68.6,44.39c7.3,5.23,18,5.68,24.78-.28,3.09-2.87,4.28-7.25,1.79-11S88.11,22,84.29,19.52c-2.36-1.53-3.9-2.54-5-4.7C78.32,12.85,79.23,7.88,81.67,9Z"/>
    <path class="b41c716f-c340-4759-9178-481edc0e5343" d="M81.35,2A25.5,25.5,0,1,1,56,27.5,25.44,25.44,0,0,1,81.35,2Z"/>
    <path class="aecd2cec-441b-49ab-a8f4-e2271194f396" d="M146.37,38.25V16.7h3.37l6.72,12.54a9.94,9.94,0,0,1,.64,1.49q.35,1,.72,2.28c-.07-.64-.13-1.27-.16-1.9s0-1.41,0-2.36v-12h3.1V38.25h-3.19l-6.91-12.78A11.28,11.28,0,0,1,150,24c-.23-.65-.47-1.41-.73-2.31.08.62.14,1.25.17,1.88s.05,1.43.05,2.39V38.25ZM134,34.72a4,4,0,0,0,3.41-2.06,9.24,9.24,0,0,0,1.34-5.14,9.35,9.35,0,0,0-1.36-5.16,3.83,3.83,0,0,0-6.82,0,9.28,9.28,0,0,0-1.36,5.16,9.25,9.25,0,0,0,1.34,5.16A4,4,0,0,0,134,34.72Zm8.09-7.2a15.54,15.54,0,0,1-.61,4.37,11.82,11.82,0,0,1-1.75,3.62A8.81,8.81,0,0,1,137.09,38a5.92,5.92,0,0,1-5.79.18,8.12,8.12,0,0,1-2.44-1.92,11.14,11.14,0,0,1-2.2-3.87,15.87,15.87,0,0,1-.15-9.21,11.56,11.56,0,0,1,1.76-3.63,8.49,8.49,0,0,1,2.65-2.44,6.15,6.15,0,0,1,3.11-.87,6.08,6.08,0,0,1,3.08.87,8.71,8.71,0,0,1,2.65,2.44,11.71,11.71,0,0,1,1.75,3.64A15.36,15.36,0,0,1,142.12,27.52ZM118.34,16.7h3.25V38.25h-3.25ZM108.07,34.75a4.44,4.44,0,0,0,1.11.13,4.93,4.93,0,0,0,2.44-.63,6.91,6.91,0,0,0,2.1-1.88l0,4.73a7.59,7.59,0,0,1-2.18,1.3,6.79,6.79,0,0,1-2.39.42,6.92,6.92,0,0,1-2.34-.38c0-.1.09-.21.14-.32A27.81,27.81,0,0,0,108.07,34.75Zm-3.71-9.49a12.91,12.91,0,0,0-.18,2.23,13.15,13.15,0,0,0,.18,2.25,23.08,23.08,0,0,1-1.29,5.73,13.5,13.5,0,0,1-2.23-8,13.51,13.51,0,0,1,2.23-8A23.08,23.08,0,0,1,104.36,25.26Zm9.38-3a7.07,7.07,0,0,0-2-1.83,4.42,4.42,0,0,0-2.21-.58,4.93,4.93,0,0,0-1.47.21,27.76,27.76,0,0,0-1.1-3.22c-.05-.1-.09-.21-.14-.31a7.29,7.29,0,0,1,2.41-.39,7.89,7.89,0,0,1,2.38.36,8.79,8.79,0,0,1,2.27,1.14Zm-30.33,16L89.19,16.7h3.72l5.86,21.55h-3.7l-1.23-4.58H88L86.9,38.25Zm9.67-8.2-1.7-7c0-.2-.11-.55-.19-1.06S91,20.91,91,20.18c-.09.7-.18,1.33-.26,1.88s-.15.93-.19,1.11l-1.64,6.88ZM80.68,22.3a7.18,7.18,0,0,0-2-1.83,4.43,4.43,0,0,0-2.22-.58A4.5,4.5,0,0,0,72.57,22a9.5,9.5,0,0,0-1.44,5.54,9.58,9.58,0,0,0,1.33,5.39,4.21,4.21,0,0,0,3.66,2,5,5,0,0,0,2.45-.63,6.88,6.88,0,0,0,2.09-1.88l0,4.73a7.67,7.67,0,0,1-2.17,1.3,6.87,6.87,0,0,1-2.39.42,7.05,7.05,0,0,1-6-3.2,13.42,13.42,0,0,1-2.33-8.13,13.48,13.48,0,0,1,2.33-8.12,7.15,7.15,0,0,1,6-3.19,7.89,7.89,0,0,1,2.38.36,9,9,0,0,1,2.28,1.14ZM60.22,36.92V18.08c.21-.47.43-.93.67-1.38h2.58V38.25H60.86C60.63,37.82,60.42,37.37,60.22,36.92ZM49,25.88h.49a3.87,3.87,0,0,0,2.6-.61,2.87,2.87,0,0,0,.64-2.13,3.11,3.11,0,0,0-.68-2.26,3.66,3.66,0,0,0-2.56-.67H49Zm6.83,12.37H53L49,28.18V38.25H45.77V16.7h4.65a5.29,5.29,0,0,1,4.14,1.52,5.26,5.26,0,0,1,.49.65,27.7,27.7,0,0,0-1.37,8.63c0,.17,0,.34,0,.51a3,3,0,0,1-1.13.43L54,31.87a28,28,0,0,0,1.76,6.25Zm-24.28,0V16.7h2.85a15.56,15.56,0,0,1,3.23.24,4.78,4.78,0,0,1,1.77.8,4.78,4.78,0,0,1,1.36,1.9,7,7,0,0,1,.48,2.66,5.27,5.27,0,0,1-.8,3.08,3.81,3.81,0,0,1-2.38,1.53,4.33,4.33,0,0,1,2.77,1.7,5.81,5.81,0,0,1,.94,3.48A7.62,7.62,0,0,1,41.24,35a4.74,4.74,0,0,1-1.48,2,5.2,5.2,0,0,1-2,.93,18,18,0,0,1-3.75.28Zm3.25-12.94h.72a3,3,0,0,0,2.09-.59,2.64,2.64,0,0,0,.61-2,2.62,2.62,0,0,0-.58-1.93,2.87,2.87,0,0,0-2-.58h-.79Zm0,9.35h1.27a2.3,2.3,0,0,0,1.86-.76,3.4,3.4,0,0,0,.64-2.22A3,3,0,0,0,38,29.6a2.27,2.27,0,0,0-1.82-.73H34.81Zm-8.13-18V30.1c0,2.93-.54,5.11-1.62,6.56a5.76,5.76,0,0,1-4.91,2.16,5.82,5.82,0,0,1-5-2.16C14.1,35.21,13.56,33,13.56,30.1V16.7h3.23V29.38a7.79,7.79,0,0,0,.83,4,2.72,2.72,0,0,0,2.48,1.35,2.79,2.79,0,0,0,2.51-1.35,7.6,7.6,0,0,0,.85-4V16.7ZM2,38.25V16.7H5.25V34.33h5.18v3.92Z"/>
    <path class="eb02d863-b183-4793-abf4-666fe0c1d8fd" d="M146.37,38.25V16.7h3.37l6.72,12.54a9.94,9.94,0,0,1,.64,1.49q.35,1,.72,2.28c-.07-.64-.13-1.27-.16-1.9s0-1.41,0-2.36v-12h3.1V38.25h-3.19l-6.91-12.78A11.28,11.28,0,0,1,150,24c-.23-.65-.47-1.41-.73-2.31.08.62.14,1.25.17,1.88s.05,1.43.05,2.39V38.25ZM134,34.72a4,4,0,0,0,3.41-2.06,9.24,9.24,0,0,0,1.34-5.14,9.35,9.35,0,0,0-1.36-5.16,3.83,3.83,0,0,0-6.82,0,9.28,9.28,0,0,0-1.36,5.16,9.25,9.25,0,0,0,1.34,5.16A4,4,0,0,0,134,34.72Zm8.09-7.2a15.54,15.54,0,0,1-.61,4.37,11.82,11.82,0,0,1-1.75,3.62A8.81,8.81,0,0,1,137.09,38a5.92,5.92,0,0,1-5.79.18,8.12,8.12,0,0,1-2.44-1.92,11.14,11.14,0,0,1-2.2-3.87,15.87,15.87,0,0,1-.15-9.21,11.56,11.56,0,0,1,1.76-3.63,8.49,8.49,0,0,1,2.65-2.44,6.15,6.15,0,0,1,3.11-.87,6.08,6.08,0,0,1,3.08.87,8.71,8.71,0,0,1,2.65,2.44,11.71,11.71,0,0,1,1.75,3.64A15.36,15.36,0,0,1,142.12,27.52ZM118.34,16.7h3.25V38.25h-3.25ZM108.07,34.75a4.44,4.44,0,0,0,1.11.13,4.93,4.93,0,0,0,2.44-.63,6.91,6.91,0,0,0,2.1-1.88l0,4.73a7.59,7.59,0,0,1-2.18,1.3,6.79,6.79,0,0,1-2.39.42,6.92,6.92,0,0,1-2.34-.38c0-.1.09-.21.14-.32A27.81,27.81,0,0,0,108.07,34.75Zm-3.71-9.49a12.91,12.91,0,0,0-.18,2.23,13.15,13.15,0,0,0,.18,2.25,23.08,23.08,0,0,1-1.29,5.73,13.5,13.5,0,0,1-2.23-8,13.51,13.51,0,0,1,2.23-8A23.08,23.08,0,0,1,104.36,25.26Zm9.38-3a7.07,7.07,0,0,0-2-1.83,4.42,4.42,0,0,0-2.21-.58,4.93,4.93,0,0,0-1.47.21,27.76,27.76,0,0,0-1.1-3.22c-.05-.1-.09-.21-.14-.31a7.29,7.29,0,0,1,2.41-.39,7.89,7.89,0,0,1,2.38.36,8.79,8.79,0,0,1,2.27,1.14Zm-30.33,16L89.19,16.7h3.72l5.86,21.55h-3.7l-1.23-4.58H88L86.9,38.25Zm9.67-8.2-1.7-7c0-.2-.11-.55-.19-1.06S91,20.91,91,20.18c-.09.7-.18,1.33-.26,1.88s-.15.93-.19,1.11l-1.64,6.88ZM80.68,22.3a7.18,7.18,0,0,0-2-1.83,4.43,4.43,0,0,0-2.22-.58A4.5,4.5,0,0,0,72.57,22a9.5,9.5,0,0,0-1.44,5.54,9.58,9.58,0,0,0,1.33,5.39,4.21,4.21,0,0,0,3.66,2,5,5,0,0,0,2.45-.63,6.88,6.88,0,0,0,2.09-1.88l0,4.73a7.67,7.67,0,0,1-2.17,1.3,6.87,6.87,0,0,1-2.39.42,7.05,7.05,0,0,1-6-3.2,13.42,13.42,0,0,1-2.33-8.13,13.48,13.48,0,0,1,2.33-8.12,7.15,7.15,0,0,1,6-3.19,7.89,7.89,0,0,1,2.38.36,9,9,0,0,1,2.28,1.14ZM60.22,36.92V18.08c.21-.47.43-.93.67-1.38h2.58V38.25H60.86C60.63,37.82,60.42,37.37,60.22,36.92ZM49,25.88h.49a3.87,3.87,0,0,0,2.6-.61,2.87,2.87,0,0,0,.64-2.13,3.11,3.11,0,0,0-.68-2.26,3.66,3.66,0,0,0-2.56-.67H49Zm6.83,12.37H53L49,28.18V38.25H45.77V16.7h4.65a5.29,5.29,0,0,1,4.14,1.52,5.26,5.26,0,0,1,.49.65,27.7,27.7,0,0,0-1.37,8.63c0,.17,0,.34,0,.51a3,3,0,0,1-1.13.43L54,31.87a28,28,0,0,0,1.76,6.25Zm-24.28,0V16.7h2.85a15.56,15.56,0,0,1,3.23.24,4.78,4.78,0,0,1,1.77.8,4.78,4.78,0,0,1,1.36,1.9,7,7,0,0,1,.48,2.66,5.27,5.27,0,0,1-.8,3.08,3.81,3.81,0,0,1-2.38,1.53,4.33,4.33,0,0,1,2.77,1.7,5.81,5.81,0,0,1,.94,3.48A7.62,7.62,0,0,1,41.24,35a4.74,4.74,0,0,1-1.48,2,5.2,5.2,0,0,1-2,.93,18,18,0,0,1-3.75.28Zm3.25-12.94h.72a3,3,0,0,0,2.09-.59,2.64,2.64,0,0,0,.61-2,2.62,2.62,0,0,0-.58-1.93,2.87,2.87,0,0,0-2-.58h-.79Zm0,9.35h1.27a2.3,2.3,0,0,0,1.86-.76,3.4,3.4,0,0,0,.64-2.22A3,3,0,0,0,38,29.6a2.27,2.27,0,0,0-1.82-.73H34.81Zm-8.13-18V30.1c0,2.93-.54,5.11-1.62,6.56a5.76,5.76,0,0,1-4.91,2.16,5.82,5.82,0,0,1-5-2.16C14.1,35.21,13.56,33,13.56,30.1V16.7h3.23V29.38a7.79,7.79,0,0,0,.83,4,2.72,2.72,0,0,0,2.48,1.35,2.79,2.79,0,0,0,2.51-1.35,7.6,7.6,0,0,0,.85-4V16.7ZM2,38.25V16.7H5.25V34.33h5.18v3.92Z"/>
  </g>
</svg>
